# xmcd
#
# Track frame offsets:
#	150
#	23913
#	70433
#	92903
#	116346
#	142836
#	166388
#	210655
#	233971
#	257525
#
# Disc length: 4110 seconds
#
# Revision: 1
# Processed by: cddbd v1.5.2PL0 Copyright (c) Steve Scherf et al.
# Submitted via: EZCDAudioConverter 8.0.2.1
#
DISCID=85100c0a
DTITLE=Hương Thủy , Thu Phương, Duy Trường - Nhạc PG. Hoa Bất Diệt
DYEAR=2011
DGENRE=Miscellaneous
TTITLE0=Hương Thủy - Diệu Pháp Âm
TTITLE1=Hương Thủy, Duy Trường - Ý nghĩa Vu Lan
TTITLE2=Thu Phương - Sự sống
TTITLE3=Duy Trường - Hiếu đạo
TTITLE4=Hương Thủy - Chùa tôi
TTITLE5=Thu Phương - Dưới đài sen
TTITLE6=Duy Trường - Côngcha nghĩa mẹ
TTITLE7=Hương Thủy - Lạy Phật Quan Âm
TTITLE8=Duy Trường - Nhành Dương cứu khổ
TTITLE9=Hương Thủy - Hoa bất diệt
EXTD=
EXTT0=
EXTT1=
EXTT2=
EXTT3=
EXTT4=
EXTT5=
EXTT6=
EXTT7=
EXTT8=
EXTT9=
PLAYORDER=
